<svg width="66" height="64" viewBox="0 0 66 64" fill="none" xmlns="http://www.w3.org/2000/svg">
<path d="M53.1621 12.1152L59.7412 30.5518V36.3457L61.3203 42.1406L60.7939 43.9834L64.7422 52.6748L65.5312 56.0986L60.7939 61.6299L55.5303 59.5234L46.583 64L45.793 52.6748L40.0029 47.9346L37.6348 49.5146V50.3047L37.8975 53.9922L36.3184 64L0 49.5146L31.5811 23.4404L30.2656 19.7529L39.7402 20.543L37.6348 15.5391L27.3701 12.1152L11.8428 18.6992L8.94824 31.8682L2.89453 15.5391L18.1592 1.05371L40.5293 0L53.1621 12.1152ZM51.3193 42.4033L55.0039 41.6133L54.2148 38.1895L49.4775 36.873L51.3193 42.4033Z" fill="#191717"/>
</svg>
